# xmcd
#
# Track frame offsets:
#	150
#	19017
#	43537
#	62735
#	82326
#	99977
#
# Disc length: 1643 seconds
#
# Revision: 0
# Processed by: cddbd v1.5.2PL0 Copyright (c) Steve Scherf et al.
# Submitted via: FairStars CD Ripper 1.52
#
DISCID=45066906
DTITLE=Mark Steiner - Fallen Birds
DYEAR=2007
DGENRE=Blues
TTITLE0=Nisj
TTITLE1=Unbearable
TTITLE2=Wallspotting
TTITLE3=(Now She's) Gone
TTITLE4=Drunk
TTITLE5=Cigarettes (Crooner Version)
EXTD=
EXTT0=
EXTT1=
EXTT2=
EXTT3=
EXTT4=
EXTT5=
PLAYORDER=
